<svg width="66" height="76" viewBox="0 0 66 76" fill="none" xmlns="http://www.w3.org/2000/svg">
<path d="M22.951 42.2385L24.2547 40.8211C24.685 43.7391 27.1995 45.9787 30.2371 45.9787C33.577 45.9787 36.2846 43.2712 36.2846 39.9313C36.2846 36.5914 33.577 33.8839 30.2371 33.8839C26.9604 33.8839 24.2924 36.4899 24.1926 39.7424L22.8885 38.1016C23.7496 34.9222 26.6552 32.5833 30.1071 32.5833C33.7049 32.5833 36.7092 35.124 37.4238 38.5091C37.0515 39.1214 36.6954 39.7339 36.3575 40.3477L37.4121 41.6677C36.6884 44.9742 33.7768 47.4621 30.2711 47.5376L29.5767 46.6299L29.0967 47.4716C26.1748 47.077 23.7884 44.9948 22.951 42.2385Z" fill="white"/>
<path d="M29.5224 31.5586C26.0961 31.7664 23.2208 34.015 22.0962 37.1047L0 9.30399H12.5596L29.5224 31.5586Z" fill="white"/>
<path d="M38.175 37.3068C37.1604 34.3686 34.5376 32.1507 31.3926 31.6497C33.9575 29.4902 36.6996 27.0855 39.674 24.4772L39.6741 24.4771C41.312 23.0408 43.0202 21.5427 44.8081 19.9899C45.3065 21.6726 46.6883 22.9758 48.4162 23.3621C47.3468 24.7951 46.2818 26.1883 45.2389 27.5526L45.2388 27.5527L45.2387 27.5528C42.6591 30.9274 40.215 34.1247 38.175 37.3068Z" fill="white"/>
<path d="M54.2009 17.3551L55.6623 16.1968L51.7608 12.4252L50.5366 13.8393C52.3201 14.2313 53.7377 15.5994 54.2009 17.3551Z" fill="white"/>
<path d="M49.7277 14.7737C51.559 14.888 53.0421 16.287 53.2863 18.0801L53.0601 18.2594L52.2564 17.5116C51.9394 16.6455 51.2218 15.9697 50.324 15.7134L49.5432 14.9868L49.7277 14.7737Z" fill="white"/>
<path d="M45.6977 19.2184C46.0012 18.9557 46.307 18.6914 46.6151 18.4257C46.6148 18.4356 46.6146 18.4455 46.6144 18.4554C46.5836 20.0619 47.8609 21.3893 49.4675 21.4201C49.6011 21.4227 49.7328 21.4162 49.862 21.4012C49.6129 21.7437 49.3636 22.0838 49.1143 22.4216C47.3739 22.2547 45.973 20.9249 45.6977 19.2184Z" fill="white"/>
<path d="M31.024 48.5217C34.3508 48.1265 37.1536 45.7547 38.1933 42.6453L61.3727 71.6565H48.724L31.024 48.5217Z" fill="white"/>
<path d="M22.1663 43.0915C23.2211 45.8196 25.6219 47.9034 28.5428 48.4429L17.1668 68.3908C17.1668 68.3764 17.1669 68.3621 17.1669 68.3477C17.1669 63.679 13.2521 59.8943 8.58346 59.8943C7.85125 59.8943 7.14078 59.9874 6.46324 60.1624L22.1663 43.0915Z" fill="white"/>
<path d="M57.2879 15.0263L64.5137 10.9945L65.1586 4.50306L64.2424 2.59938L63.3644 3.10284L63.5945 4.66817L61.8781 9.38302L56.5728 10.4094L57.2879 15.0263Z" fill="white"/>
<path d="M52.3393 11.6361L51.9019 3.92361L57.5704 0L59.9109 0.0449037L59.8897 1.15014L57.9981 1.43904L54.7363 5.34379L56.2984 15.4547L52.3393 11.6361Z" fill="white"/>
<path fill-rule="evenodd" clip-rule="evenodd" d="M37.5851 40.0611C37.5851 44.1911 34.2371 47.5391 30.1071 47.5391C25.9771 47.5391 22.6291 44.1911 22.6291 40.0611C22.6291 35.9311 25.9771 32.5831 30.1071 32.5831C34.2371 32.5831 37.5851 35.9311 37.5851 40.0611ZM34.984 40.0611C34.984 42.7545 32.8006 44.938 30.1071 44.938C27.4136 44.938 25.2301 42.7545 25.2301 40.0611C25.2301 37.3676 27.4136 35.1841 30.1071 35.1841C32.8006 35.1841 34.984 37.3676 34.984 40.0611Z" fill="white"/>
<path fill-rule="evenodd" clip-rule="evenodd" d="M16.1265 68.4127C16.1265 72.5427 12.7785 75.8907 8.64849 75.8907C4.5185 75.8907 1.17047 72.5427 1.17047 68.4127C1.17047 64.2827 4.5185 60.9347 8.64849 60.9347C12.7785 60.9347 16.1265 64.2827 16.1265 68.4127ZM13.5254 68.4127C13.5254 71.1062 11.3419 73.2897 8.64848 73.2897C5.95501 73.2897 3.7715 71.1062 3.7715 68.4127C3.7715 65.7192 5.95501 63.5357 8.64848 63.5357C11.3419 63.5357 13.5254 65.7192 13.5254 68.4127Z" fill="white"/>
<path fill-rule="evenodd" clip-rule="evenodd" d="M53.3214 18.6025C53.3214 20.7214 51.6038 22.439 49.4849 22.439C47.366 22.439 45.6483 20.7214 45.6483 18.6025C45.6483 16.4836 47.366 14.7659 49.4849 14.7659C51.6038 14.7659 53.3214 16.4836 53.3214 18.6025ZM51.7608 18.6022C51.7608 19.8592 50.7418 20.8781 49.4849 20.8781C48.2279 20.8781 47.2089 19.8592 47.2089 18.6022C47.2089 17.3453 48.2279 16.3263 49.4849 16.3263C50.7418 16.3263 51.7608 17.3453 51.7608 18.6022Z" fill="white"/>
<path d="M37.3924 38.6365C37.3957 38.6375 37.399 38.6384 37.4023 38.6394C39.8494 39.3549 41.3283 40.1158 41.209 40.8848C41 42.2326 35.8831 42.7977 29.7818 42.1478C23.6806 41.4967 18.9031 39.8774 19.1121 38.5296C19.2292 37.7744 20.8758 37.3616 23.3845 37.1739C23.3883 37.1736 23.3921 37.1733 23.3959 37.173C23.5236 36.8724 23.6681 36.6003 23.8285 36.3548C23.7952 36.3551 23.762 36.3554 23.7288 36.3558C19.0054 36.4036 15.6774 37.1441 15.4849 38.3846C15.2077 40.171 21.6094 42.6207 29.6925 43.4819C37.7771 44.3444 44.4835 43.2916 44.7607 41.5053C44.9562 40.2449 41.8632 38.8054 37.1859 37.7644C37.1759 37.7622 37.1659 37.76 37.1558 37.7578C37.2478 38.052 37.3282 38.3529 37.3924 38.6365Z" fill="white"/>
</svg>
