<svg width="28" height="28" viewBox="0 0 28 28" fill="none" xmlns="http://www.w3.org/2000/svg">
<g id="Essentials/alert sign">
<path id="Icon" d="M15 10.4943C14.9969 9.94199 14.5467 9.4968 13.9944 9.4999C13.4422 9.503 12.997 9.95322 13.0001 10.5055L15 10.4943ZM13.0263 15.1648C13.0294 15.7171 13.4796 16.1623 14.0319 16.1592C14.5841 16.1561 15.0293 15.7058 15.0262 15.1536L13.0263 15.1648ZM15.0001 18.6549C15.0001 18.1026 14.5523 17.6549 14.0001 17.6549C13.4478 17.6549 13.0001 18.1026 13.0001 18.6549H15.0001ZM13.0001 18.6665C13.0001 19.2188 13.4478 19.6665 14.0001 19.6665C14.5523 19.6665 15.0001 19.2188 15.0001 18.6665H13.0001ZM11.9807 4.65448L11.1153 4.15344V4.15344L11.9807 4.65448ZM3.19445 19.8308L2.32902 19.3298V19.3298L3.19445 19.8308ZM24.8057 19.8308L23.9403 20.3318L24.8057 19.8308ZM16.0194 4.65449L15.154 5.15552V5.15552L16.0194 4.65449ZM14.0001 10.4999L13.0001 10.5055L13.0263 15.1648L14.0262 15.1592L15.0262 15.1536L15 10.4943L14.0001 10.4999ZM14.0001 18.6549H13.0001V18.6665H14.0001H15.0001V18.6549H14.0001ZM11.9807 4.65448L11.1153 4.15344L2.32902 19.3298L3.19445 19.8308L4.05988 20.3318L12.8462 5.15552L11.9807 4.65448ZM5.21377 23.3332V24.3332H22.7864V23.3332V22.3332H5.21377V23.3332ZM24.8057 19.8308L25.6711 19.3298L16.8848 4.15345L16.0194 4.65449L15.154 5.15552L23.9403 20.3318L24.8057 19.8308ZM22.7864 23.3332V24.3332C25.3541 24.3332 26.9577 21.552 25.6711 19.3298L24.8057 19.8308L23.9403 20.3318C24.4549 21.2207 23.8135 22.3332 22.7864 22.3332V23.3332ZM3.19445 19.8308L2.32902 19.3298C1.04248 21.552 2.64599 24.3332 5.21377 24.3332V23.3332V22.3332C4.18667 22.3332 3.54525 21.2207 4.05988 20.3318L3.19445 19.8308ZM11.9807 4.65448L12.8462 5.15552C13.3597 4.26847 14.6404 4.26847 15.154 5.15552L16.0194 4.65449L16.8848 4.15345C15.6009 1.93584 12.3992 1.93582 11.1153 4.15344L11.9807 4.65448Z" fill="#FF3131"/>
</g>
</svg>
