<svg width="580" height="538" viewBox="0 0 580 538" fill="none" xmlns="http://www.w3.org/2000/svg">
<path d="M-211.572 791.998L-187.121 765.423C-179.051 820.137 -131.893 862.131 -74.9255 862.131C-12.2881 862.131 38.4894 811.363 38.4894 748.737C38.4894 686.112 -12.2881 635.344 -74.9255 635.344C-136.378 635.344 -186.415 684.209 -188.286 745.196L-212.744 714.43C-196.594 654.813 -142.101 610.959 -77.364 610.959C-9.89087 610.959 46.4529 658.598 59.8544 722.07C52.8727 733.551 46.1953 745.036 39.8582 756.546L59.6364 781.296C46.0628 843.296 -8.54181 889.946 -74.2877 891.36L-87.3112 874.341L-96.3137 890.124C-151.111 882.724 -195.866 843.682 -211.572 791.998Z" fill="white"/>
<path d="M-88.3298 591.745C-152.587 595.641 -206.512 637.804 -227.603 695.737L-642 174.456H-406.455L-88.3298 591.745Z" fill="white"/>
<path d="M73.9429 699.528C54.9146 644.434 5.72595 602.846 -53.2548 593.451C-5.15289 552.96 46.2733 507.872 102.056 458.963C132.773 432.031 164.812 403.94 198.343 374.823C207.689 406.375 233.604 430.811 266.01 438.055C245.953 464.923 225.979 491.048 206.421 516.629C158.042 579.905 112.202 639.861 73.9429 699.528Z" fill="white"/>
<path d="M374.497 325.42L401.905 303.7L328.734 232.981L305.776 259.496C339.224 266.846 365.811 292.5 374.497 325.42Z" fill="white"/>
<path d="M290.605 277.017C324.95 279.159 352.765 305.392 357.345 339.013L353.102 342.376L338.03 328.354C332.085 312.114 318.626 299.442 301.789 294.636L287.146 281.012L290.605 277.017Z" fill="white"/>
<path d="M215.026 360.358C220.718 355.431 226.453 350.476 232.231 345.493C232.225 345.679 232.221 345.865 232.217 346.051C231.639 376.174 255.596 401.063 285.725 401.641C288.231 401.689 290.702 401.567 293.125 401.286C288.453 407.708 283.777 414.085 279.102 420.419C246.461 417.289 220.189 392.356 215.026 360.358Z" fill="white"/>
<path d="M-60.1674 909.813C2.22357 902.402 54.787 857.93 74.2861 799.628L508.999 1343.61H271.783L-60.1674 909.813Z" fill="white"/>
<path d="M-226.288 807.994C-206.506 859.148 -161.481 898.219 -106.701 908.335L-320.05 1282.37C-320.049 1282.1 -320.048 1281.83 -320.048 1281.56C-320.048 1194.02 -393.466 1123.06 -481.024 1123.06C-494.756 1123.06 -508.08 1124.8 -520.787 1128.08L-226.288 807.994Z" fill="white"/>
<path d="M432.392 281.753L567.906 206.154L580 84.4354L562.818 48.7401L546.351 58.1803L550.667 87.5312L518.477 175.938L418.979 195.184L432.392 281.753Z" fill="white"/>
<path d="M339.583 218.184L331.381 73.5702L437.69 0L481.584 0.841973L481.187 21.5659L445.71 26.983L384.538 100.199L413.833 289.785L339.583 218.184Z" fill="white"/>
<path fill-rule="evenodd" clip-rule="evenodd" d="M62.8798 751.171C62.8798 828.611 0.0906982 891.389 -77.3641 891.389C-154.819 891.389 -217.609 828.611 -217.609 751.171C-217.609 673.731 -154.819 610.959 -77.364 610.959C0.0908813 610.959 62.8798 673.731 62.8798 751.171ZM14.0991 751.171C14.0991 801.675 -26.8502 842.617 -77.3641 842.617C-127.878 842.617 -168.828 801.675 -168.828 751.171C-168.828 700.667 -127.878 659.725 -77.3641 659.725C-26.8502 659.725 14.0991 700.667 14.0991 751.171Z" fill="white"/>
<path fill-rule="evenodd" clip-rule="evenodd" d="M-339.56 1282.78C-339.56 1360.22 -402.349 1423 -479.804 1423C-557.259 1423 -620.049 1360.22 -620.049 1282.78C-620.049 1205.34 -557.259 1142.57 -479.804 1142.57C-402.349 1142.57 -339.56 1205.34 -339.56 1282.78ZM-388.341 1282.78C-388.341 1333.29 -429.29 1374.23 -479.804 1374.23C-530.318 1374.23 -571.268 1333.29 -571.268 1282.78C-571.268 1232.28 -530.318 1191.34 -479.804 1191.34C-429.29 1191.34 -388.341 1232.28 -388.341 1282.78Z" fill="white"/>
<path fill-rule="evenodd" clip-rule="evenodd" d="M358.003 348.809C358.003 388.539 325.789 420.746 286.051 420.746C246.314 420.746 214.1 388.539 214.1 348.809C214.1 309.078 246.314 276.871 286.051 276.871C325.789 276.871 358.003 309.078 358.003 348.809ZM328.734 348.804C328.734 372.372 309.624 391.478 286.051 391.478C262.478 391.478 243.368 372.372 243.368 348.804C243.368 325.235 262.478 306.129 286.051 306.129C309.624 306.129 328.734 325.235 328.734 348.804Z" fill="white"/>
<path d="M59.2665 724.46C59.3281 724.478 59.3896 724.496 59.4512 724.514C105.346 737.93 133.08 752.198 130.844 766.617C126.924 791.889 30.9597 802.485 -83.4641 790.299C-197.888 778.089 -287.487 747.727 -283.567 722.455C-281.37 708.295 -250.491 700.554 -203.442 697.035C-203.371 697.029 -203.299 697.024 -203.228 697.019C-200.832 691.381 -198.123 686.28 -195.115 681.677C-195.738 681.682 -196.361 681.688 -196.984 681.694C-285.568 682.591 -347.983 696.475 -351.593 719.737C-356.791 753.233 -236.732 799.165 -85.1399 815.314C66.48 831.486 192.254 811.746 197.453 778.251C201.12 754.619 143.112 727.626 55.3932 708.108C55.2054 708.066 55.0175 708.024 54.8297 707.982C56.5549 713.5 58.0623 719.142 59.2665 724.46Z" fill="white"/>
</svg>
