<svg width="23" height="26" viewBox="0 0 23 26" fill="none" xmlns="http://www.w3.org/2000/svg">
<path d="M19.7714 20.2429L20.7714 20.2518L19.7714 20.2429ZM1.90039 4.8C1.34811 4.8 0.900391 5.24772 0.900391 5.8C0.900391 6.35228 1.34811 6.8 1.90039 6.8V4.8ZM21.1004 6.8C21.6527 6.8 22.1004 6.35228 22.1004 5.8C22.1004 5.24772 21.6527 4.8 21.1004 4.8V6.8ZM10.1004 10.6C10.1004 10.0477 9.65268 9.6 9.10039 9.6C8.54811 9.6 8.10039 10.0477 8.10039 10.6H10.1004ZM8.10039 20.2C8.10039 20.7523 8.54811 21.2 9.10039 21.2C9.65268 21.2 10.1004 20.7523 10.1004 20.2H8.10039ZM14.9004 10.6C14.9004 10.0477 14.4527 9.6 13.9004 9.6C13.3481 9.6 12.9004 10.0477 12.9004 10.6H14.9004ZM12.9004 20.2C12.9004 20.7523 13.3481 21.2 13.9004 21.2C14.4527 21.2 14.9004 20.7523 14.9004 20.2H12.9004ZM19.9004 5.8L18.9004 5.79107L18.7715 20.2339L19.7714 20.2429L20.7714 20.2518L20.9004 5.80893L19.9004 5.8ZM14.9716 25V24H7.90039V25V26H14.9716V25ZM3.10039 5.8H2.10039V20.2H3.10039H4.10039V5.8H3.10039ZM1.90039 5.8V6.8H3.10039V5.8V4.8H1.90039V5.8ZM3.10039 5.8V6.8H6.70039V5.8V4.8H3.10039V5.8ZM6.70039 5.8V6.8H16.3004V5.8V4.8H6.70039V5.8ZM16.3004 5.8V6.8H19.9004V5.8V4.8H16.3004V5.8ZM19.9004 5.8V6.8H21.1004V5.8V4.8H19.9004V5.8ZM6.70039 5.26667H7.70039C7.70039 3.57001 9.28773 2 11.5004 2V1V0C8.41112 0 5.70039 2.25049 5.70039 5.26667H6.70039ZM11.5004 1V2C13.7131 2 15.3004 3.57001 15.3004 5.26667H16.3004H17.3004C17.3004 2.25049 14.5897 0 11.5004 0V1ZM6.70039 5.26667H5.70039V5.8H6.70039H7.70039V5.26667H6.70039ZM16.3004 5.26667H15.3004V5.8H16.3004H17.3004V5.26667H16.3004ZM7.90039 25V24C5.80171 24 4.10039 22.2987 4.10039 20.2H3.10039H2.10039C2.10039 23.4033 4.69714 26 7.90039 26V25ZM19.7714 20.2429L18.7715 20.2339C18.7529 22.3193 17.0571 24 14.9716 24V25V26C18.1547 26 20.743 23.4347 20.7714 20.2518L19.7714 20.2429ZM9.10039 10.6H8.10039V20.2H9.10039H10.1004V10.6H9.10039ZM13.9004 10.6H12.9004V20.2H13.9004H14.9004V10.6H13.9004Z" fill="white"/>
</svg>
