<svg width="28" height="28" viewBox="0 0 28 28" fill="none" xmlns="http://www.w3.org/2000/svg">
<g id="ix:robotic-arm" clip-path="url(#clip0_974_1680)">
<path id="Subtract" d="M16.2588 0.37207C17.54 -0.39401 19.1783 0.0608725 19.918 1.3877C20.4457 2.33443 20.3734 3.46942 19.8232 4.32031L22.8916 9.82227C23.4626 9.92148 23.9887 10.2742 24.3008 10.834C24.4205 11.0487 24.5021 11.2828 24.542 11.5254L26.999 12.9961L26.9971 13.001H27L26.3154 15.665L25.0215 15.3066L25.4434 13.668L24.2705 12.9668C24.1015 13.2511 23.864 13.4971 23.5654 13.6758C23.2829 13.8447 22.9768 13.9348 22.6719 13.9521V15.3076L24.2637 15.75L23.917 17.0898L21.3291 16.3721L21.332 16.3613L21.3301 13.5195C21.1296 13.3589 20.9549 13.1563 20.8203 12.915L20.7314 12.7363C20.5286 12.2764 20.5011 11.7719 20.626 11.3115L17.6416 5.95215L10.7988 10.0439L14.7188 17.0762L15.0078 17.2061C16.8273 18.0928 18.0869 20.0091 18.0869 22.2295L18.0879 25.0029L21.4443 25V27.7773H4.69336V25.0039L7.37305 25.0029L7.37207 22.2295C7.37172 21.776 7.42443 21.3237 7.53027 20.8828L7.54004 20.8467L2.62988 12.0391C2.63111 12.0411 2.63255 12.0429 2.63379 12.0449C2.23263 11.3974 2 10.6272 2 9.80078C2 7.5026 3.79941 5.63965 6.01855 5.63965C6.40642 5.63954 6.79226 5.69684 7.16309 5.81055L16.2588 0.37207ZM12.5293 19.4629C11.1433 19.5689 10.0508 20.7671 10.0508 22.2295V25.0039H15.4082V22.2295L15.4004 22.0225C15.2982 20.5871 14.1417 19.4551 12.7295 19.4551L12.5293 19.4629ZM8.92773 12.6709C8.3491 13.2998 7.58215 13.7411 6.7207 13.8984L6.75684 13.8916L9.12012 18.1289L9.35352 17.9209C9.98092 17.3931 10.7265 17.0095 11.542 16.8184L11.4902 16.8301L9.07617 12.501L8.92773 12.6709ZM6.01855 8.41406C5.27884 8.41406 4.67871 9.03477 4.67871 9.80078C4.67872 10.5669 5.27884 11.1875 6.01855 11.1875C6.75806 11.1872 7.35742 10.5666 7.35742 9.80078C7.35742 9.03492 6.75806 8.41432 6.01855 8.41406ZM17.541 1.64258C16.9834 1.64269 16.5314 2.09471 16.5312 2.65234C16.5312 3.21007 16.9833 3.662 17.541 3.66211C18.0988 3.66211 18.5508 3.21014 18.5508 2.65234C18.5507 2.09465 18.0987 1.64258 17.541 1.64258Z" fill="white"/>
</g>
<defs>
<clipPath id="clip0_974_1680">
<rect width="28" height="28" fill="white"/>
</clipPath>
</defs>
</svg>
