<svg width="38" height="38" viewBox="0 0 38 38" fill="none" xmlns="http://www.w3.org/2000/svg">
<path d="M17 26.0007C17 27.1053 17.8954 28.0007 19 28.0007C20.1046 28.0007 21 27.1053 21 26.0007H17ZM21 5.37569C21 4.27112 20.1046 3.37569 19 3.37569C17.8954 3.37569 17 4.27112 17 5.37569L21 5.37569ZM25.0858 10.5399C25.8668 11.321 27.1332 11.321 27.9142 10.5399C28.6953 9.75886 28.6953 8.49253 27.9142 7.71148L25.0858 10.5399ZM20.3258 2.95152L18.9116 4.36573L20.3258 2.95152ZM17.6742 2.95152L19.0884 4.36573L19.0884 4.36573L17.6742 2.95152ZM10.0858 7.71148C9.30474 8.49253 9.30474 9.75886 10.0858 10.5399C10.8668 11.321 12.1332 11.321 12.9142 10.5399L10.0858 7.71148ZM4.125 26.0007C4.125 24.8961 3.22957 24.0007 2.125 24.0007C1.02043 24.0007 0.125 24.8961 0.125 26.0007H4.125ZM37.875 26.0007C37.875 24.8961 36.9796 24.0007 35.875 24.0007C34.7704 24.0007 33.875 24.8961 33.875 26.0007H37.875ZM32.8037 34.7626L31.8957 32.9806L31.8957 32.9806L32.8037 34.7626ZM35.2619 32.3044L37.0439 33.2124V33.2124L35.2619 32.3044ZM2.73809 32.3044L0.956075 33.2124L2.73809 32.3044ZM5.1963 34.7626L4.28832 36.5446L4.28832 36.5446L5.1963 34.7626ZM19 26.0007H21L21 5.37569L19 5.37569L17 5.37569L17 26.0007H19ZM26.5 9.12569L27.9142 7.71148L21.74 1.5373L20.3258 2.95152L18.9116 4.36573L25.0858 10.5399L26.5 9.12569ZM17.6742 2.95152L16.26 1.53731L10.0858 7.71148L11.5 9.12569L12.9142 10.5399L19.0884 4.36573L17.6742 2.95152ZM20.3258 2.95152L21.74 1.5373C20.2268 0.0240211 17.7732 0.0240252 16.26 1.53731L17.6742 2.95152L19.0884 4.36573C19.0396 4.41455 18.9604 4.41455 18.9116 4.36573L20.3258 2.95152ZM2.125 26.0007H0.125V26.3757H2.125H4.125V26.0007H2.125ZM11.125 35.3757V37.3757H26.875V35.3757V33.3757H11.125V35.3757ZM35.875 26.3757H37.875V26.0007H35.875H33.875V26.3757H35.875ZM26.875 35.3757V37.3757C28.4171 37.3757 29.694 37.3773 30.7324 37.2924C31.794 37.2057 32.7811 37.0188 33.7117 36.5446L32.8037 34.7626L31.8957 32.9806C31.623 33.1195 31.2209 33.2392 30.4066 33.3057C29.569 33.3741 28.4832 33.3757 26.875 33.3757V35.3757ZM35.875 26.3757H33.875C33.875 27.9838 33.8734 29.0697 33.805 29.9073C33.7385 30.7216 33.6188 31.1237 33.4799 31.3964L35.2619 32.3044L37.0439 33.2124C37.5181 32.2818 37.705 31.2947 37.7917 30.233C37.8766 29.1947 37.875 27.9178 37.875 26.3757H35.875ZM32.8037 34.7626L33.7117 36.5446C35.1464 35.8136 36.3129 34.6471 37.0439 33.2124L35.2619 32.3044L33.4799 31.3964C33.1324 32.0785 32.5778 32.6331 31.8957 32.9806L32.8037 34.7626ZM2.125 26.3757H0.125C0.125 27.9178 0.123445 29.1947 0.208278 30.233C0.29502 31.2947 0.48193 32.2818 0.956075 33.2124L2.73809 32.3044L4.5201 31.3964C4.38116 31.1237 4.26152 30.7216 4.19499 29.9073C4.12656 29.0697 4.125 27.9838 4.125 26.3757H2.125ZM11.125 35.3757V33.3757C9.51685 33.3757 8.43102 33.3741 7.59338 33.3057C6.77908 33.2392 6.37698 33.1195 6.10428 32.9806L5.1963 34.7626L4.28832 36.5446C5.21889 37.0188 6.20598 37.2057 7.26765 37.2924C8.30596 37.3773 9.58285 37.3757 11.125 37.3757V35.3757ZM2.73809 32.3044L0.956075 33.2124C1.68711 34.6471 2.85359 35.8136 4.28832 36.5446L5.1963 34.7626L6.10428 32.9806C5.4222 32.6331 4.86764 32.0785 4.5201 31.3964L2.73809 32.3044Z" fill="white"/>
</svg>
