<svg width="29" height="28" viewBox="0 0 29 28" fill="none" xmlns="http://www.w3.org/2000/svg">
<g id="Essentials/video camera">
<path id="Icon" d="M20.9987 9.33268L25.5 8.5C26.2363 8.31592 26.9496 8.87283 26.9496 9.63183V18.31C26.9496 19.069 26.2363 19.6259 25.5 19.4419L20.9987 18.666M9.7987 23.3327H13.532C16.1456 23.3327 17.4524 23.3327 18.4507 22.824C19.3287 22.3766 20.0427 21.6627 20.4901 20.7846C20.9987 19.7864 20.9987 18.4796 20.9987 15.866V12.1327C20.9987 9.5191 20.9987 8.21231 20.4901 7.21406C20.0427 6.33597 19.3287 5.62206 18.4507 5.17465C17.4524 4.66602 16.1456 4.66602 13.532 4.66602H9.7987C7.18512 4.66602 5.87833 4.66602 4.88008 5.17465C4.00199 5.62206 3.28808 6.33597 2.84067 7.21406C2.33203 8.21231 2.33203 9.5191 2.33203 12.1327V15.866C2.33203 18.4796 2.33203 19.7864 2.84067 20.7846C3.28808 21.6627 4.00199 22.3766 4.88008 22.824C5.87833 23.3327 7.18512 23.3327 9.7987 23.3327Z" stroke="white" stroke-width="3" stroke-linecap="round"/>
</g>
</svg>
