<svg width="63" height="66" viewBox="0 0 63 66" fill="none" xmlns="http://www.w3.org/2000/svg">
<path d="M41.1667 25.3763L29.417 37.0326C28.7878 37.6568 27.7677 37.6568 27.1386 37.0326L21.8333 31.7696M17.2685 3H45.7315C46.7696 3 47.6111 3.83485 47.6111 4.86469C47.6111 10.0139 51.8188 14.1882 57.0093 14.1882H58.3519C59.5382 14.1882 60.5 15.1423 60.5 16.3192V19.0639C60.5 36.7708 50.8232 53.0859 35.2206 61.6852L34.0019 62.3568C32.446 63.2144 30.554 63.2144 28.9981 62.3568L27.7794 61.6852C12.1768 53.0859 2.5 36.7708 2.5 19.0639V16.3192C2.5 15.1423 3.46176 14.1882 4.64815 14.1882H5.99074C11.1812 14.1882 15.3889 10.0139 15.3889 4.86469C15.3889 3.83485 16.2304 3 17.2685 3Z" stroke="white" stroke-width="5" stroke-linecap="round"/>
</svg>
