<svg width="28" height="28" viewBox="0 0 28 28" fill="none" xmlns="http://www.w3.org/2000/svg">
<g id="ph:headlights-bold">
<path id="Vector" d="M18.0646 7.85714C18.0646 7.51615 18.2074 7.18912 18.4614 6.94801C18.7155 6.70689 19.0601 6.57143 19.4194 6.57143H26.6452C27.0045 6.57143 27.3491 6.70689 27.6032 6.94801C27.8573 7.18912 28 7.51615 28 7.85714C28 8.19814 27.8573 8.52516 27.6032 8.76628C27.3491 9.0074 27.0045 9.14286 26.6452 9.14286H19.4194C19.0601 9.14286 18.7155 9.0074 18.4614 8.76628C18.2074 8.52516 18.0646 8.19814 18.0646 7.85714ZM26.6452 16.8571H19.4194C19.0601 16.8571 18.7155 16.9926 18.4614 17.2337C18.2074 17.4748 18.0646 17.8019 18.0646 18.1429C18.0646 18.4838 18.2074 18.8109 18.4614 19.052C18.7155 19.2931 19.0601 19.4286 19.4194 19.4286H26.6452C27.0045 19.4286 27.3491 19.2931 27.6032 19.052C27.8573 18.8109 28 18.4838 28 18.1429C28 17.8019 27.8573 17.4748 27.6032 17.2337C27.3491 16.9926 27.0045 16.8571 26.6452 16.8571ZM26.6452 11.7143H19.4194C19.0601 11.7143 18.7155 11.8497 18.4614 12.0909C18.2074 12.332 18.0646 12.659 18.0646 13C18.0646 13.341 18.2074 13.668 18.4614 13.9091C18.7155 14.1503 19.0601 14.2857 19.4194 14.2857H26.6452C27.0045 14.2857 27.3491 14.1503 27.6032 13.9091C27.8573 13.668 28 13.341 28 13C28 12.659 27.8573 12.332 27.6032 12.0909C27.3491 11.8497 27.0045 11.7143 26.6452 11.7143ZM16.2582 6.14286V19.8571C16.2582 20.4255 16.0203 20.9705 15.5968 21.3724C15.1733 21.7742 14.599 22 14.0001 22H9.48405C8.23261 22 6.99354 21.765 5.83826 21.3085C4.68297 20.852 3.63431 20.183 2.75273 19.3401C1.87114 18.4973 1.17406 17.4971 0.701659 16.3974C0.229258 15.2976 -0.00911901 14.1201 0.000266757 12.9325C0.0386535 8.00714 4.3391 4 9.58566 4H14.0001C14.599 4 15.1733 4.22576 15.5968 4.62763C16.0203 5.02949 16.2582 5.57454 16.2582 6.14286ZM13.5485 6.57143H9.58566C5.82263 6.57143 2.73814 9.43321 2.70992 12.9507C2.70306 13.7991 2.87322 14.6403 3.21059 15.426C3.54795 16.2116 4.04584 16.9261 4.67556 17.5283C5.30528 18.1305 6.05437 18.6084 6.87965 18.9346C7.70493 19.2607 8.59007 19.4286 9.48405 19.4286H13.5485V6.57143Z" fill="white"/>
</g>
</svg>
