<svg width="53" height="66" viewBox="0 0 53 66" fill="none" xmlns="http://www.w3.org/2000/svg">
<path d="M12.1 63L12.1 60.5L12.1 63ZM40.9 63L40.9 65.5L40.9 63ZM50.5 53.4H48H50.5ZM50.5 12.6H53H50.5ZM49.846 6.27605L52.0736 5.14108V5.14108L49.846 6.27605ZM40.9 3V0.5V3ZM47.2239 3.65396L48.3589 1.42645L48.3589 1.42644L47.2239 3.65396ZM47.2239 62.346L48.3589 64.5736L47.2239 62.346ZM49.846 59.7239L47.6185 58.589L49.846 59.7239ZM5.77606 62.346L6.91104 60.1185L5.77606 62.346ZM2.5 53.4L2.86102e-06 53.4L2.5 53.4ZM3.15396 59.7239L5.38148 58.589L3.15396 59.7239ZM5 21C5 19.6193 3.88071 18.5 2.5 18.5C1.11929 18.5 -2.38419e-07 19.6193 0 21L5 21ZM20.5 0.500002C19.1193 0.500002 18 1.61929 18 3C18 4.38071 19.1193 5.5 20.5 5.5V0.500002ZM3.01214 20.4879L1.24437 18.7201L3.01214 20.4879ZM19.9879 3.51214L21.7556 5.2799L19.9879 3.51214ZM3.22427 21L3.22427 23.5L3.22427 21ZM17.5 21V18.5V21ZM20.5 18L18 18L20.5 18ZM20.5 3.72427H23L23 3.72427L20.5 3.72427ZM14.5 30.5C13.1193 30.5 12 31.6193 12 33C12 34.3807 13.1193 35.5 14.5 35.5V30.5ZM38.5 35.5C39.8807 35.5 41 34.3807 41 33C41 31.6193 39.8807 30.5 38.5 30.5V35.5ZM32.5 18.5C31.1193 18.5 30 19.6193 30 21C30 22.3807 31.1193 23.5 32.5 23.5V18.5ZM38.5 23.5C39.8807 23.5 41 22.3807 41 21C41 19.6193 39.8807 18.5 38.5 18.5V23.5ZM14.5 42.5C13.1193 42.5 12 43.6193 12 45C12 46.3807 13.1193 47.5 14.5 47.5V42.5ZM38.5 47.5C39.8807 47.5 41 46.3807 41 45C41 43.6193 39.8807 42.5 38.5 42.5V47.5ZM12.1 63V65.5H40.9V63V60.5H12.1V63ZM50.5 53.4H53V12.6H50.5H48V53.4H50.5ZM50.5 12.6H53C53 10.9611 53.0019 9.58156 52.91 8.45563C52.8156 7.30052 52.61 6.19398 52.0736 5.14108L49.846 6.27605L47.6185 7.41103C47.736 7.6416 47.8574 8.01688 47.9266 8.86279C47.9981 9.73789 48 10.8786 48 12.6H50.5ZM40.9 3V5.5C42.6214 5.5 43.7621 5.50194 44.6372 5.57344C45.4831 5.64256 45.8584 5.764 46.089 5.88148L47.2239 3.65396L48.3589 1.42644C47.306 0.889962 46.1995 0.684424 45.0444 0.590048C43.9184 0.498055 42.5389 0.5 40.9 0.5V3ZM49.846 6.27605L52.0736 5.14108C51.2586 3.54169 49.9583 2.24137 48.3589 1.42645L47.2239 3.65396L46.089 5.88147C46.7475 6.21704 47.283 6.75247 47.6185 7.41103L49.846 6.27605ZM40.9 63L40.9 65.5C42.5389 65.5 43.9184 65.5019 45.0444 65.41C46.1995 65.3156 47.306 65.11 48.3589 64.5736L47.2239 62.346L46.089 60.1185C45.8584 60.236 45.4831 60.3574 44.6372 60.4266C43.7621 60.4981 42.6214 60.5 40.9 60.5V63ZM50.5 53.4H48C48 55.1214 47.9981 56.2621 47.9266 57.1372C47.8574 57.9831 47.736 58.3584 47.6185 58.589L49.846 59.7239L52.0736 60.8589C52.61 59.806 52.8156 58.6995 52.91 57.5444C53.0019 56.4184 53 55.0389 53 53.4H50.5ZM47.2239 62.346L48.3589 64.5736C49.9583 63.7586 51.2586 62.4583 52.0736 60.8589L49.846 59.7239L47.6185 58.589C47.283 59.2475 46.7475 59.783 46.089 60.1185L47.2239 62.346ZM12.1 63L12.1 60.5C10.3786 60.5 9.23789 60.4981 8.36279 60.4266C7.51688 60.3574 7.1416 60.236 6.91104 60.1185L5.77606 62.346L4.64108 64.5736C5.69399 65.11 6.80052 65.3156 7.95564 65.41C9.08157 65.5019 10.4611 65.5 12.1 65.5V63ZM2.5 53.4L2.86102e-06 53.4C2.86102e-06 55.0389 -0.0019412 56.4184 0.0900509 57.5444C0.184428 58.6995 0.389966 59.806 0.926448 60.8589L3.15396 59.7239L5.38148 58.589C5.264 58.3584 5.14256 57.9831 5.07345 57.1372C5.00195 56.2621 5 55.1214 5 53.4H2.5ZM5.77606 62.346L6.91104 60.1185C6.25247 59.783 5.71704 59.2475 5.38148 58.589L3.15396 59.7239L0.926448 60.8589C1.74137 62.4583 3.0417 63.7586 4.64108 64.5736L5.77606 62.346ZM2.5 21H0L2.86102e-06 53.4L2.5 53.4H5L5 21L2.5 21ZM40.9 3V0.5L20.5 0.500002V3V5.5L40.9 5.5V3ZM3.01214 20.4879L4.7799 22.2556L21.7556 5.2799L19.9879 3.51214L18.2201 1.74437L1.24437 18.7201L3.01214 20.4879ZM3.22427 21L3.22427 23.5L17.5 23.5L17.5 21V18.5L3.22427 18.5L3.22427 21ZM20.5 18H23V3.72427H20.5H18V18H20.5ZM17.5 21L17.5 23.5C20.5376 23.5 23 21.0376 23 18H20.5L18 18C18 18.2761 17.7761 18.5 17.5 18.5V21ZM19.9879 3.51214L21.7556 5.2799C20.3697 6.66582 18 5.68427 18 3.72427L20.5 3.72427L23 3.72427C23 1.22973 19.984 -0.0195258 18.2201 1.74437L19.9879 3.51214ZM3.01214 20.4879L1.24437 18.7201C-0.519534 20.484 0.729736 23.5 3.22427 23.5L3.22427 21L3.22427 18.5C5.18426 18.5 6.16583 20.8697 4.7799 22.2556L3.01214 20.4879ZM14.5 33V35.5H38.5V33V30.5H14.5V33ZM32.5 21V23.5H38.5V21V18.5H32.5V21ZM14.5 45V47.5H38.5V45V42.5H14.5V45Z" fill="white"/>
</svg>
