<svg width="24" height="25" viewBox="0 0 24 25" fill="none" xmlns="http://www.w3.org/2000/svg">
<path d="M13 3.5C13 2.94772 12.5523 2.5 12 2.5C11.4477 2.5 11 2.94772 11 3.5L13 3.5ZM11 14.5C11 15.0523 11.4477 15.5 12 15.5C12.5523 15.5 13 15.0523 13 14.5H11ZM16.7071 13.2071C17.0976 12.8166 17.0976 12.1834 16.7071 11.7929C16.3166 11.4024 15.6834 11.4024 15.2929 11.7929L16.7071 13.2071ZM12.7071 15.7929L12 15.0858L12.7071 15.7929ZM11.2929 15.7929L12 15.0858H12L11.2929 15.7929ZM8.70711 11.7929C8.31658 11.4024 7.68342 11.4024 7.29289 11.7929C6.90237 12.1834 6.90237 12.8166 7.29289 13.2071L8.70711 11.7929ZM4 16.5C4 15.9477 3.55228 15.5 3 15.5C2.44772 15.5 2 15.9477 2 16.5H4ZM22 16.5C22 15.9477 21.5523 15.5 21 15.5C20.4477 15.5 20 15.9477 20 16.5H22ZM19.362 21.173L18.908 20.282H18.908L19.362 21.173ZM20.673 19.862L21.564 20.316L20.673 19.862ZM3.32698 19.862L2.43597 20.316L3.32698 19.862ZM4.63803 21.173L4.18404 22.064H4.18404L4.63803 21.173ZM11 3.5L11 14.5H13L13 3.5L11 3.5ZM15.2929 11.7929L12 15.0858L13.4142 16.5L16.7071 13.2071L15.2929 11.7929ZM12 15.0858L8.70711 11.7929L7.29289 13.2071L10.5858 16.5L12 15.0858ZM12 15.0858H12L10.5858 16.5C11.3668 17.281 12.6332 17.281 13.4142 16.5L12 15.0858ZM2 16.5V16.7H4V16.5H2ZM7.8 22.5H16.2V20.5H7.8V22.5ZM22 16.7V16.5H20V16.7H22ZM16.2 22.5C17.0236 22.5 17.7014 22.5008 18.2518 22.4558C18.8139 22.4099 19.3306 22.3113 19.816 22.064L18.908 20.282C18.7516 20.3617 18.5274 20.4266 18.089 20.4624C17.6389 20.4992 17.0566 20.5 16.2 20.5V22.5ZM20 16.7C20 17.5566 19.9992 18.1389 19.9624 18.589C19.9266 19.0274 19.8617 19.2516 19.782 19.408L21.564 20.316C21.8113 19.8306 21.9099 19.3139 21.9558 18.7518C22.0008 18.2014 22 17.5236 22 16.7H20ZM19.816 22.064C20.5686 21.6805 21.1805 21.0686 21.564 20.316L19.782 19.408C19.5903 19.7843 19.2843 20.0903 18.908 20.282L19.816 22.064ZM2 16.7C2 17.5236 1.99922 18.2014 2.04419 18.7518C2.09012 19.3139 2.18868 19.8306 2.43597 20.316L4.21799 19.408C4.1383 19.2516 4.07337 19.0274 4.03755 18.589C4.00078 18.1389 4 17.5566 4 16.7H2ZM7.8 20.5C6.94342 20.5 6.36113 20.4992 5.91104 20.4624C5.47262 20.4266 5.24842 20.3617 5.09202 20.282L4.18404 22.064C4.66937 22.3113 5.18608 22.4099 5.74817 22.4558C6.2986 22.5008 6.97642 22.5 7.8 22.5V20.5ZM2.43597 20.316C2.81947 21.0686 3.43139 21.6805 4.18404 22.064L5.09202 20.282C4.71569 20.0903 4.40973 19.7843 4.21799 19.408L2.43597 20.316Z" fill="white"/>
</svg>
