<svg width="28" height="28" viewBox="0 0 28 28" fill="none" xmlns="http://www.w3.org/2000/svg">
<path id="Vector" fill-rule="evenodd" clip-rule="evenodd" d="M14 1.95349C10.8051 1.95349 7.74099 3.22267 5.48183 5.48183C3.22267 7.74099 1.95349 10.8051 1.95349 14C1.95349 17.1949 3.22267 20.259 5.48183 22.5182C7.74099 24.7773 10.8051 26.0465 14 26.0465C17.1949 26.0465 20.259 24.7773 22.5182 22.5182C24.7773 20.259 26.0465 17.1949 26.0465 14C26.0465 10.8051 24.7773 7.74099 22.5182 5.48183C20.259 3.22267 17.1949 1.95349 14 1.95349ZM0 14C0 6.26809 6.26809 0 14 0C21.7319 0 28 6.26809 28 14C28 21.7319 21.7319 28 14 28C6.26809 28 0 21.7319 0 14ZM7.23181 13.0233H10.5527C10.7148 12.4518 11.017 11.9299 11.4318 11.5047L9.77005 8.62661C8.39106 9.71209 7.48228 11.2863 7.23181 13.0233ZM11.4618 7.64986L13.1222 10.528C13.6984 10.3829 14.3016 10.3829 14.8778 10.528L16.5382 7.64986C15.7313 7.32606 14.8695 7.16069 14 7.16279C13.1027 7.16279 12.2471 7.336 11.4618 7.64986ZM18.2287 8.62661L16.5669 11.5047C16.9758 11.9241 17.2819 12.4437 17.446 13.0233H20.7669C20.5158 11.2865 19.6065 9.71285 18.2274 8.62791M20.7656 14.978H17.4447C17.2826 15.5495 16.9804 16.0714 16.5656 16.4966L18.2274 19.3747C19.6063 18.2892 20.5151 16.715 20.7656 14.978ZM16.5356 20.3514L14.8752 17.4733C14.299 17.6189 13.6957 17.6189 13.1196 17.4733L11.4592 20.3514C12.2432 20.6653 13.1001 20.8385 13.9974 20.8385C14.8947 20.8385 15.7516 20.6653 16.5369 20.3514M9.76874 19.3747L11.4305 16.4966C11.0166 16.071 10.7149 15.5491 10.5527 14.978H7.23181C7.48226 16.7144 8.39054 18.288 9.76874 19.3734M13.1991 15.4182L13.1847 15.4104L13.1717 15.4026C12.9282 15.2591 12.7262 15.0547 12.5856 14.8094C12.4451 14.5641 12.3708 14.2865 12.3702 14.0038C12.3695 13.7211 12.4425 13.4431 12.5819 13.1972C12.7213 12.9513 12.9223 12.7459 13.1652 12.6013L13.1847 12.5909L13.2043 12.5779C13.4462 12.4416 13.7191 12.37 13.9967 12.37C14.2744 12.37 14.5473 12.4416 14.7892 12.5779L14.8127 12.5909L14.8348 12.6039C15.077 12.7492 15.2773 12.955 15.416 13.2011C15.5546 13.4472 15.6268 13.7251 15.6255 14.0076C15.6242 14.2901 15.5494 14.5673 15.4085 14.8122C15.2676 15.057 15.0654 15.2609 14.8218 15.4039L14.8127 15.4104L14.8022 15.4169C14.5583 15.5567 14.282 15.6303 14.0008 15.6306C13.7196 15.6308 13.4433 15.5576 13.1991 15.4182ZM5.2093 14C5.2093 11.6686 6.13546 9.43261 7.78404 7.78404C9.43261 6.13546 11.6686 5.2093 14 5.2093C16.3314 5.2093 18.5674 6.13546 20.216 7.78404C21.8645 9.43261 22.7907 11.6686 22.7907 14C22.7907 16.3314 21.8645 18.5674 20.216 20.216C18.5674 21.8645 16.3314 22.7907 14 22.7907C11.6686 22.7907 9.43261 21.8645 7.78404 20.216C6.13546 18.5674 5.2093 16.3314 5.2093 14Z" fill="white"/>
</svg>
