<svg width="25" height="28" viewBox="0 0 25 28" fill="none" xmlns="http://www.w3.org/2000/svg">
<g id="Frame 1386">
<g clip-path="url(#clip0_974_1774)">
<g id="Vector">
<path d="M-28.3916 51.9347L-26.7993 50.1831C-26.2738 53.7894 -23.2028 56.5571 -19.4929 56.5571C-15.4138 56.5571 -12.1071 53.211 -12.1071 49.0834C-12.1071 44.9558 -15.4138 41.6097 -19.4929 41.6097C-23.4948 41.6097 -26.7533 44.8304 -26.8752 48.85L-28.4679 46.8222C-27.4162 42.8929 -23.8675 40.0025 -19.6517 40.0025C-15.2577 40.0025 -11.5885 43.1424 -10.7158 47.3258C-11.1705 48.0825 -11.6053 48.8395 -12.018 49.5981L-10.73 51.2293C-11.6139 55.3157 -15.1699 58.3904 -19.4514 58.4836L-20.2995 57.3619L-20.8857 58.4022C-24.4543 57.9144 -27.3688 55.3412 -28.3916 51.9347Z" fill="white"/>
<path d="M-20.3658 38.7361C-24.5503 38.9929 -28.062 41.7718 -29.4356 45.5902L-56.4219 11.2327H-41.0827L-20.3658 38.7361Z" fill="white"/>
<path d="M-9.79832 45.84C-11.0375 42.2088 -14.2407 39.4678 -18.0817 38.8486C-14.9492 36.1798 -11.6002 33.208 -7.96752 29.9844C-5.96722 28.2094 -3.88076 26.358 -1.69717 24.4388C-1.08851 26.5184 0.599113 28.129 2.70945 28.6064C1.40333 30.3773 0.102589 32.0992 -1.17109 33.7852C-4.32162 37.9557 -7.30684 41.9074 -9.79832 45.84Z" fill="white"/>
<path d="M9.77435 21.1827L11.5592 19.7511L6.79416 15.0901L5.29906 16.8377C7.47729 17.3221 9.20865 19.0129 9.77435 21.1827Z" fill="white"/>
<path d="M4.31113 17.9925C6.54774 18.1337 8.35909 19.8626 8.65737 22.0786L8.38102 22.3003L7.39953 21.3761C7.01238 20.3057 6.13589 19.4705 5.03942 19.1537L4.08583 18.2558L4.31113 17.9925Z" fill="white"/>
<path d="M-0.610722 23.4855C-0.240044 23.1607 0.133411 22.8341 0.509693 22.5057C0.509338 22.518 0.509048 22.5302 0.508816 22.5425C0.471172 24.5279 2.03124 26.1683 3.99333 26.2064C4.15656 26.2096 4.31742 26.2015 4.4752 26.183C4.17096 26.6063 3.86648 27.0266 3.56204 27.4441C1.43642 27.2378 -0.274502 25.5944 -0.610722 23.4855Z" fill="white"/>
<path d="M-18.5318 59.6998C-14.4688 59.2114 -11.0458 56.2803 -9.77597 52.4376L18.5333 88.291H3.08538L-18.5318 59.6998Z" fill="white"/>
<path d="M-29.35 52.989C-28.0617 56.3605 -25.1295 58.9357 -21.5622 59.6025L-35.4559 84.2551C-35.4558 84.2374 -35.4558 84.2196 -35.4558 84.2018C-35.4558 78.432 -40.2369 73.7547 -45.9388 73.7547C-46.8331 73.7547 -47.7008 73.8697 -48.5282 74.086L-29.35 52.989Z" fill="white"/>
<path d="M13.5446 18.3046L22.3695 13.3219L23.1571 5.29948L22.0382 2.94682L20.9658 3.56902L21.2468 5.50353L19.1506 11.3304L12.6711 12.5989L13.5446 18.3046Z" fill="white"/>
<path d="M7.50068 14.1148L6.96651 4.58336L13.8896 -0.265625L16.7481 -0.210131L16.7222 1.15578L14.4119 1.51281L10.4282 6.33849L12.336 18.834L7.50068 14.1148Z" fill="white"/>
<path fill-rule="evenodd" clip-rule="evenodd" d="M-10.5188 49.2438C-10.5188 54.3479 -14.6077 58.4855 -19.6517 58.4855C-24.6957 58.4855 -28.7847 54.3479 -28.7847 49.2438C-28.7847 44.1398 -24.6957 40.0025 -19.6517 40.0025C-14.6077 40.0025 -10.5188 44.1398 -10.5188 49.2438ZM-13.6955 49.2438C-13.6955 52.5725 -16.3622 55.271 -19.6517 55.271C-22.9413 55.271 -25.608 52.5725 -25.608 49.2438C-25.608 45.9151 -22.9413 43.2166 -19.6517 43.2166C-16.3622 43.2166 -13.6955 45.9151 -13.6955 49.2438Z" fill="white"/>
<path fill-rule="evenodd" clip-rule="evenodd" d="M-36.7264 84.2822C-36.7264 89.3862 -40.8154 93.5238 -45.8594 93.5238C-50.9034 93.5238 -54.9924 89.3862 -54.9924 84.2822C-54.9924 79.1781 -50.9034 75.0405 -45.8594 75.0405C-40.8154 75.0405 -36.7264 79.1781 -36.7264 84.2822ZM-39.9031 84.2822C-39.9031 87.6109 -42.5698 90.3093 -45.8594 90.3093C-49.149 90.3093 -51.8157 87.6109 -51.8157 84.2822C-51.8157 80.9534 -49.149 78.255 -45.8594 78.255C-42.5698 78.255 -39.9031 80.9534 -39.9031 84.2822Z" fill="white"/>
<path fill-rule="evenodd" clip-rule="evenodd" d="M8.70021 22.7242C8.70021 25.3428 6.60239 27.4656 4.01459 27.4656C1.42679 27.4656 -0.671047 25.3428 -0.671047 22.7242C-0.671047 20.1056 1.42679 17.9828 4.01459 17.9828C6.60239 17.9828 8.70021 20.1056 8.70021 22.7242ZM6.79416 22.7239C6.79416 24.2773 5.5497 25.5366 4.01457 25.5366C2.47944 25.5366 1.23496 24.2773 1.23496 22.7239C1.23496 21.1705 2.47944 19.9112 4.01457 19.9112C5.5497 19.9112 6.79416 21.1705 6.79416 22.7239Z" fill="white"/>
<path d="M-10.7541 47.4833C-10.7501 47.4845 -10.7461 47.4856 -10.7421 47.4868C-7.7533 48.3711 -5.94718 49.3115 -6.09283 50.2619C-6.34809 51.9275 -12.5975 52.6259 -20.049 51.8227C-27.5005 51.018 -33.3353 49.0168 -33.08 47.3512C-32.937 46.4179 -30.9261 45.9076 -27.8621 45.6757C-27.8575 45.6754 -27.8529 45.675 -27.8482 45.6747C-27.6922 45.3031 -27.5158 44.9669 -27.3199 44.6635C-27.3605 44.6638 -27.401 44.6642 -27.4416 44.6646C-33.2104 44.7237 -37.2749 45.6388 -37.51 47.172C-37.8485 49.3797 -30.0301 52.4071 -20.1581 53.4714C-10.2843 54.5373 -2.09367 53.2363 -1.75513 51.0286C-1.51628 49.471 -5.29387 47.692 -11.0063 46.4055C-11.0185 46.4028 -11.0308 46.4 -11.043 46.3973C-10.9307 46.7609 -10.8325 47.1328 -10.7541 47.4833Z" fill="white"/>
</g>
</g>
</g>
<defs>
<clipPath id="clip0_974_1774">
<path d="M0 0H25V28H7.10526C3.18113 28 0 24.8189 0 20.8947V0Z" fill="white"/>
</clipPath>
</defs>
</svg>
